<svg width="85" height="85" viewBox="0 0 85 85" fill="none" xmlns="http://www.w3.org/2000/svg">
<rect width="85" height="85" rx="24" fill="white"/>
<path d="M42.96 22.8242C45.8852 22.8242 48.2625 23.081 50.0908 23.5947C51.7142 24.0509 53.3093 24.7291 54.875 25.6289C55.0749 25.7444 56.8025 27.0722 57.001 27.1943C56.572 27.8518 56.2756 28.7166 56.1104 29.7881C55.9537 30.8041 55.866 32.4968 55.8477 34.8652C53.3612 33.4954 51.0536 32.217 49.6885 31.6299C48.3233 31.0428 46.7385 30.75 44.9346 30.75C43.1307 30.75 41.7897 31.0311 40.9121 31.5938C40.0348 32.1564 39.5957 32.9512 39.5957 33.9785C39.5957 35.2016 40.0835 36.0946 41.0586 36.6572C42.0337 37.2199 43.594 37.7947 45.7393 38.3818C48.1769 39.0178 50.1027 39.6414 51.5166 40.2529C52.9304 40.8644 54.198 41.9162 55.3193 43.4082C56.4406 44.9003 57.0009 46.992 57.001 49.6826C56.9035 53.8899 55.3194 56.9601 52.248 58.8926C49.1765 60.8251 45.276 61.792 40.5469 61.792C38.2066 61.792 36.1585 61.5595 34.4033 61.0947C32.6482 60.6299 30.6978 59.9568 28.5527 59.0762V49.4629C32.5018 52.4472 36.6463 53.9394 40.9854 53.9395C42.6429 53.9395 43.8498 53.6583 44.6055 53.0957C45.3611 52.5331 45.7392 51.7625 45.7393 50.7842C45.7393 49.659 45.1298 48.8272 43.9111 48.2891C42.6923 47.7509 40.7419 47.1633 38.0605 46.5273C35.2328 45.9403 32.9045 44.7662 31.0762 43.0049C29.248 41.2437 28.334 38.6754 28.334 35.2998C28.334 32.4133 29.0647 30.0398 30.5273 28.1807C31.9899 26.3217 33.8307 24.9646 36.0488 24.1084C38.2671 23.2522 40.571 22.8242 42.96 22.8242Z" fill="white"/>
<path fill-rule="evenodd" clip-rule="evenodd" d="M39.7628 67C36.7423 67 34.0995 66.7018 31.8342 66.1055C29.5689 65.5091 27.0519 64.646 24.2832 63.516V51.1808C29.3801 55.0101 34.7287 56.9247 40.3291 56.9247C42.4685 56.9247 44.0259 56.5637 45.0013 55.8418C45.9766 55.1199 46.4643 54.1312 46.4643 52.8757C46.4643 51.4319 45.6777 50.3647 44.1046 49.6742C42.5315 48.9837 40.0145 48.2304 36.5536 47.4143C32.9039 46.661 29.8992 45.1544 27.5395 42.8945C25.1798 40.6346 24 37.339 24 33.0075C24 29.3038 24.9439 26.2593 26.8316 23.8738C28.7194 21.4884 31.0948 19.7464 33.9579 18.6478C36.821 17.5493 39.7942 17 42.8776 17C46.6531 17 49.7207 17.3296 52.0804 17.9887C54.1758 18.574 56.234 19.444 58.255 20.5985C58.5099 20.7442 60.7463 22.4535 61 22.6082C60.4462 23.4519 60.0627 24.5614 59.8495 25.9364C59.6474 27.2401 59.5344 29.4115 59.5107 32.4506C56.3015 30.6929 53.3231 29.0527 51.5612 28.2994C49.7993 27.5461 47.7543 27.1695 45.426 27.1695C43.0978 27.1695 41.3674 27.5304 40.2347 28.2524C39.102 28.9743 38.5357 29.9943 38.5357 31.3126C38.5357 32.882 39.165 34.0276 40.4235 34.7495C41.682 35.4714 43.6956 36.209 46.4643 36.9623C49.6106 37.7784 52.0961 38.5788 53.9209 39.3635C55.7458 40.1482 57.3818 41.4978 58.8291 43.4124C60.2764 45.3271 61 48.0107 61 51.4633C60.8741 56.8619 58.8291 60.801 54.8648 63.2806C50.9005 65.7602 45.8665 67 39.7628 67Z" fill="#5D1B69"/>
</svg>
